<svg xmlns="http://www.w3.org/2000/svg" xmlns:xlink="http://www.w3.org/1999/xlink" fill="none" version="1.1" width="24" height="24" viewBox="0 0 24 24"><defs><clipPath id="master_svg0_8_2469"><rect x="0" y="0" width="24" height="24" rx="0"/></clipPath></defs><g style="mix-blend-mode:passthrough" clip-path="url(#master_svg0_8_2469)"><g style="mix-blend-mode:passthrough"><path d="M5.292893,8.292893C5.683417,7.9023689,6.31658,7.9023689,6.70711,8.292893C6.70711,8.292893,12,13.58579,12,13.58579C12,13.58579,17.2929,8.292893,17.2929,8.292893C17.6834,7.9023689,18.3166,7.9023689,18.7071,8.292893C19.0976,8.683417,19.0976,9.31658,18.7071,9.70711C18.7071,9.70711,12.70711,15.70711,12.70711,15.70711C12.31658,16.097630000000002,11.68342,16.097630000000002,11.29289,15.70711C11.29289,15.70711,5.292893,9.70711,5.292893,9.70711C4.9023689,9.31658,4.9023689,8.683417,5.292893,8.292893C5.292893,8.292893,5.292893,8.292893,5.292893,8.292893Z" fill-rule="evenodd" fill="#000000" fill-opacity="1"/></g></g></svg>